<?xml version="1.0" encoding="UTF-8" standalone="no"?>
<svg width="59px" height="41px" viewBox="0 0 59 41" version="1.1" xmlns="http://www.w3.org/2000/svg" xmlns:xlink="http://www.w3.org/1999/xlink" xmlns:sketch="http://www.bohemiancoding.com/sketch/ns">
    <!-- Generator: Sketch 3.1 (8751) - http://www.bohemiancoding.com/sketch -->
    <title>mobility_design</title>
    <desc>Created with Sketch.</desc>
    <defs></defs>
    <g id="Page-1" stroke="none" stroke-width="1" fill="none" fill-rule="evenodd" sketch:type="MSPage">
        <path d="M47.5,20 L42.819,20 C42.927,19.189 43,18.36 43,17.5 L43,11.594 C44.111,13.087 46.072,14 48.5,14 C48.776,14 49,13.776 49,13.5 L49,3.5 C49,3.223 48.776,3 48.5,3 C46.072,3 44.111,3.913 43,5.406 L43,3.5 C43,1.144 41.856,0 39.5,0 L35.5,0 C35.224,0 35,0.223 35,0.5 C35,0.776 35.224,1 35.5,1 L39.5,1 C41.322,1 42,1.677 42,3.5 L42,17.5 C42,24.413 38.157,29.765 32.439,31.446 C31.874,26.411 28.544,21.14 23.895,19 L25.5,19 C27.168,19 29,17.168 29,15.5 L29,10.5 C29,10.224 28.776,10 28.5,10 L2.5,10 C2.224,10 2,10.224 2,10.5 L2,13.453 C2,13.585 2.052,13.711 2.145,13.804 L7.145,18.851 C7.238,18.946 7.366,19 7.5,19 L8.973,19 C3.958,21.19 0,26.714 0,32.5 C0,32.776 0.224,33 0.5,33 L5.025,33 C5.286,37.453 8.982,41 13.5,41 C18.018,41 21.714,37.453 21.975,33 L28.5,33 C31.276,33 33.791,32.276 35.927,31 L40.157,31 C40.064,31.507 40,32.01 40,32.5 C40,37.187 43.814,41 48.5,41 C53.187,41 57,37.187 57,32.5 C57,32.009 56.936,31.506 56.843,31 L58.5,31 C58.776,31 59,30.776 59,30.5 C59,25.299 53.196,20 47.5,20 L47.5,20 Z M48,4.015 L48,12.985 C45.031,12.805 43,11.011 43,8.5 C43,5.989 45.031,4.195 48,4.015 L48,4.015 Z M7.708,18 L3,13.247 L3,11 L28,11 L28,15.5 C28,16.621 26.621,18 25.5,18 L7.708,18 L7.708,18 Z M13.5,40 C9.533,40 6.284,36.902 6.025,33 L20.975,33 C20.716,36.902 17.467,40 13.5,40 L13.5,40 Z M28.5,32 L1.011,32 C1.292,25.249 7.23,19 13.5,19 L19.5,19 C25.76,19 30.824,25.665 31.455,31.654 L31.46,31.693 C30.516,31.895 29.526,32 28.5,32 L28.5,32 Z M56,32.5 C56,36.636 52.636,40 48.5,40 C44.364,40 41,36.636 41,32.5 C41,32.012 41.068,31.509 41.173,31 L55.826,31 C55.932,31.508 56,32.012 56,32.5 L56,32.5 Z M37.372,30 C40.057,27.88 41.943,24.758 42.665,21 L47.5,21 C52.517,21 57.625,25.461 57.981,30 L37.372,30 L37.372,30 Z" id="mobility_design" fill="#000000" sketch:type="MSShapeGroup"></path>
    </g>
</svg>