<?xml version="1.0" encoding="UTF-8" standalone="no"?>
<svg width="50px" height="50px" viewBox="0 0 50 50" version="1.1" xmlns="http://www.w3.org/2000/svg" xmlns:xlink="http://www.w3.org/1999/xlink" xmlns:sketch="http://www.bohemiancoding.com/sketch/ns">
    <!-- Generator: Sketch 3.1.1 (8761) - http://www.bohemiancoding.com/sketch -->
    <title>contact_contact</title>
    <desc>Created with Sketch.</desc>
    <defs></defs>
    <g id="Page-1" stroke="none" stroke-width="1" fill="none" fill-rule="evenodd" sketch:type="MSPage">
        <path d="M34.0001379,25 C34.0001379,29.9711724 29.9703793,34.0001379 25,34.0001379 C20.0288276,34.0001379 15.9998621,29.9711724 15.9998621,25 C15.9998621,20.0296207 20.0288276,15.9998621 25,15.9998621 C29.9703793,15.9998621 34.0001379,20.0296207 34.0001379,25 L34.0001379,25 Z M37.9997586,44.0003793 C34.3015172,46.5383103 29.8244483,48 25,48 C12.2976552,48 2,37.7031379 2,25 C2,12.2976552 12.2976552,2 25,2 C37.7023448,2 48,12.2976552 48,25 L48,27.0002069 C48,30.8665862 44.8656552,34.0001379 41.000069,34.0001379 C37.1344828,34.0001379 34.0001379,30.8665862 34.0001379,27.0002069 L34.0001379,25" id="contact_contact" stroke="#1C39BB" stroke-width="3" stroke-linecap="round" sketch:type="MSShapeGroup"></path>
    </g>
</svg>