<?xml version="1.0" encoding="UTF-8" standalone="no"?>
<svg width="64px" height="64px" viewBox="0 0 64 64" version="1.1" xmlns="http://www.w3.org/2000/svg" xmlns:xlink="http://www.w3.org/1999/xlink" xmlns:sketch="http://www.bohemiancoding.com/sketch/ns">
    <!-- Generator: Sketch 3.1 (8751) - http://www.bohemiancoding.com/sketch -->
    <title>corona</title>
    <desc>Created with Sketch.</desc>
    <defs></defs>
    <g id="Page-1" stroke="none" stroke-width="1" fill="none" fill-rule="evenodd" sketch:type="MSPage">
        <path d="M63.3545553,25.5476496 C63.3541997,25.5437386 63.3541997,25.5398275 63.3538442,25.536272 C63.3502885,25.5046281 63.3399771,25.4761841 63.3346436,25.4456069 C63.3221988,25.38623 63.309754,25.3264977 63.2969536,25.2671209 C63.2955313,25.2628543 63.2951758,25.2578766 63.2937535,25.25361 C62.5356868,21.7162455 61.1614242,18.2503465 59.1329201,15.0109327 C49.7680227,0.0572211097 29.9779299,-4.49417129 15.0171346,4.86709818 C0.0566949558,14.2280121 -4.49561662,34.0097338 4.86892528,48.9638009 C4.87176981,48.9687786 4.8760366,48.9723341 4.87923669,48.9773118 C4.88208122,48.9815784 4.88350348,48.9869116 4.88634801,48.9911782 C7.49691363,52.955558 10.8314116,55.127967 14.2096443,55.127967 C14.6736579,55.127967 15.1387382,55.0870788 15.6023963,55.0038801 C18.6581305,54.4574001 21.1015801,52.0844611 21.8272904,48.9581121 C22.7556732,44.9571107 20.7399695,40.6830471 16.4347763,37.5257653 C8.44769713,31.6680831 11.1272425,24.5574436 12.6497762,21.7720668 C13.4892675,20.236803 15.5423056,18.3765666 17.6938355,17.9523958 C18.787201,17.7362215 19.7276731,17.9427959 20.4932067,18.5632303 C21.5353707,19.4080165 21.5495933,20.5514645 21.3782105,21.3617624 C21.0372227,22.9695584 19.538512,24.9083712 17.3322249,25.5042726 C17.2792456,25.5184946 17.2315997,25.5419608 17.1818205,25.5615161 C17.1476862,25.575027 17.1124851,25.5846268 17.079773,25.6006265 C17.0182601,25.6304927 16.9627918,25.6678255 16.9073235,25.7055137 C16.8870563,25.7190246 16.8650112,25.7296911 16.8458106,25.7446242 C16.7956758,25.7823125 16.7519412,25.8260451 16.7074954,25.8697777 C16.6861615,25.8911107 16.6623386,25.9099548 16.6420713,25.9323545 C16.6061591,25.9725316 16.5773583,26.0169753 16.546424,26.0607079 C16.5236678,26.0927074 16.4984226,26.1225736 16.4781554,26.1567064 C16.4525546,26.200439 16.4337096,26.2477271 16.4127312,26.293593 C16.3956641,26.3316368 16.3753968,26.3675474 16.3611742,26.4073689 C16.3373512,26.4756345 16.3224175,26.5467444 16.3089059,26.6182099 C16.3053503,26.6381207 16.2975278,26.6558982 16.2946833,26.6761646 C16.2943277,26.6775868 16.2943277,26.679009 16.2943277,26.6804312 C16.2936166,26.6839867 16.2936166,26.6878977 16.2929055,26.6914532 C15.9465842,29.1539908 16.8927453,31.6311059 18.82738,33.3199673 C20.7026351,34.9572739 23.1837747,35.5485531 25.4640195,34.9003859 C28.4169951,34.061644 29.1238604,32.8307308 30.0319759,30.8915624 C30.4366101,30.0279321 30.939736,28.9538163 31.9047421,27.5725055 C32.4405801,26.8048736 33.940713,26.0215975 35.4372904,26.1033739 C36.5779461,26.1634618 37.4330824,26.6946531 37.978165,27.6830815 C39.3926066,30.2455285 38.8848584,33.8988023 36.8239978,36.7247117 C34.1394744,35.5737972 30.4174095,35.9151249 27.8687124,38.6336583 C26.2028856,40.410696 25.6119349,43.3215818 26.4315146,45.7130095 C26.9229068,47.1462306 28.3668603,49.6493008 32.5152489,50.3081345 C33.0795322,50.3980886 33.6338596,50.4407546 34.1768089,50.4407546 C41.7389867,50.4407546 47.1876802,42.1173348 48.7457704,35.7103283 C49.0216896,34.5743468 49.2072951,33.4376542 49.3232096,32.3194503 C50.9364126,35.1410931 53.0886536,37.1954596 56.1568327,37.1954596 C56.4707974,37.1954596 56.7940069,37.173771 57.1271723,37.1293273 C58.6596618,36.9255973 59.9535665,36.2589415 60.9651517,35.2122031 C60.004768,43.7514415 55.3109411,51.7936214 47.4749775,56.6966525 C39.8359974,61.4763078 30.5866589,62.4647362 22.0978761,59.4073638 C21.3600766,59.1414126 20.5433415,59.5243397 20.2770226,60.2635276 C20.0107036,61.00236 20.3943594,61.8176356 21.1335811,62.0839424 C24.6963525,63.3664103 28.3803718,64 32.0419906,64 C37.9543421,63.9996445 43.8069586,62.3474047 48.9847107,59.1076354 C60.6145637,51.8305986 65.9530317,38.25642 63.3545553,25.5476496 L63.3545553,25.5476496 Z M57.1091143,34.18687 C53.113625,34.7080659 51.0325444,29.4058936 49.0032142,22.7536865 C48.8379697,22.1035132 48.6577355,21.5058471 48.4671512,20.9832416 C48.4546597,20.9494115 48.4357441,20.9205149 48.4211112,20.8884467 C48.4014817,20.8451018 48.3832799,20.8014045 48.3597245,20.7608788 C48.3354553,20.7192959 48.3072603,20.6815894 48.2794221,20.6431781 C48.2530116,20.6068811 48.2276717,20.5702318 48.198049,20.536754 C48.1659281,20.5001047 48.1302381,20.4676841 48.0945482,20.4349112 C48.0631411,20.4060146 48.0324477,20.3764132 47.9985423,20.3503358 C47.9599971,20.3207344 47.9193106,20.2957142 47.8779102,20.2703415 C47.8411496,20.2477881 47.8054597,20.2248823 47.7672714,20.2055004 C47.7248004,20.1843566 47.6809018,20.1681463 47.6366462,20.1512312 C47.5952459,20.1350209 47.5542025,20.1188106 47.5113745,20.1068291 C47.4667621,20.0941428 47.4214359,20.0867425 47.3757527,20.0786373 C47.3307834,20.0705322 47.286171,20.0617222 47.2401309,20.0581983 C47.193734,20.0543219 47.1466233,20.0560839 47.0995126,20.0567887 C47.0534725,20.0574935 47.0077894,20.0574935 46.9610356,20.0627794 C46.9124973,20.0684178 46.8639589,20.0796945 46.8154206,20.0906188 C46.7818721,20.0980192 46.7486804,20.0997812 46.7154888,20.1096483 C46.7026404,20.1135247 46.6919334,20.1202202 46.6794419,20.124449 C46.6662366,20.1286778 46.6526745,20.1293826 46.6398261,20.1339637 C46.6059206,20.1459452 46.5770118,20.1646223 46.5445339,20.1790706 C46.5002784,20.1984525 46.455666,20.2171295 46.4139087,20.2407402 C46.3732222,20.263646 46.3361047,20.2907806 46.2982733,20.3172104 C46.2597282,20.344345 46.2215399,20.3704224 46.1862069,20.4003762 C46.1512308,20.4310348 46.1201805,20.4641602 46.0880596,20.4976379 C46.0570093,20.5304109 46.0256022,20.5624791 45.997764,20.5977188 C45.969212,20.6340157 45.9452998,20.6724271 45.9206737,20.7111908 C45.8967615,20.7488973 45.8721354,20.7862514 45.8517921,20.8260724 C45.831092,20.8665981 45.8150315,20.908181 45.7982572,20.9504687 C45.7818398,20.992404 45.7647087,21.0339869 45.7522172,21.0773318 C45.7397257,21.121029 45.7322308,21.1657835 45.7236652,21.2108904 C45.7154565,21.2549401 45.706891,21.2989898 45.7029651,21.3440966 C45.6990392,21.3909655 45.7004668,21.4381868 45.7015375,21.485408 C45.7022513,21.5301625 45.7022513,21.5742122 45.7076048,21.6193191 C45.7133151,21.6679499 45.7247359,21.715876 45.7357998,21.7641544 C45.7429378,21.7972798 45.7447223,21.8300528 45.7547155,21.8631781 L46.0027606,22.6891978 C46.0802078,22.9471527 46.1594394,23.2100412 46.2393849,23.4746917 C46.902861,26.1433978 47.3903856,30.4687243 46.2972026,34.9092849 C44.9202846,40.5007755 39.8144812,48.2940456 33.2296865,47.2594066 C31.2089219,46.9422489 29.8766163,46.0140339 29.3769571,44.5748427 C28.8312578,43.0024452 29.3944452,41.2499725 30.2017517,40.3996374 C32.0801134,38.4212781 35.016682,38.4103537 36.660204,39.5345017 C36.6712678,39.5422544 36.6834024,39.5461308 36.6948232,39.5535311 C36.7426477,39.5845421 36.7922567,39.6099147 36.8429365,39.6342301 C36.8754143,39.650088 36.9068215,39.6680603 36.9400131,39.681099 C36.9914066,39.7015381 37.0442277,39.715634 37.0974058,39.7300823 C37.1316681,39.7392446 37.1652167,39.7512261 37.2001928,39.7579217 C37.2558691,39.768846 37.3122592,39.7720176 37.3686493,39.7762463 C37.4011272,39.7787131 37.4328912,39.7847039 37.4650122,39.7847039 C37.4678674,39.7847039 37.4703657,39.7854087 37.4732209,39.7854087 C37.4992745,39.7854087 37.5253282,39.7790655 37.5513819,39.7776559 C37.6166944,39.7741319 37.682007,39.7702556 37.7462489,39.7579217 C37.7830096,39.7508737 37.8183426,39.7374826 37.8547464,39.7276155 C37.9097089,39.7124624 37.9639576,39.6987189 38.0167787,39.6772226 C38.0542532,39.6620695 38.0888724,39.6416305 38.1249193,39.6233058 C38.1745283,39.5979332 38.2237804,39.572913 38.2705342,39.541902 C38.3040828,39.5193486 38.335133,39.4929188 38.367254,39.4671937 C38.4118664,39.4316016 38.4554081,39.3953047 38.4957378,39.3540742 C38.5075155,39.3420926 38.5214345,39.3339875 38.5328553,39.3216536 C42.0201197,35.5164657 42.938422,30.1441663 40.7656182,26.2565174 C39.7395323,24.420879 37.9989337,23.3488858 35.8646751,23.2378806 C33.4998594,23.1155987 31.0194083,24.2080309 29.8262935,25.89531 C28.7174069,27.4631263 28.1306642,28.7000414 27.702028,29.6032362 C26.960391,31.1671761 26.7844396,31.5386031 24.923209,32.0605037 C23.567348,32.4403882 22.0722962,32.0745996 20.9212956,31.0826007 C19.9273306,30.2259225 19.3570053,29.0524389 19.29776,27.8338485 C21.8206821,26.7858184 23.8500124,24.4860725 24.3967823,21.9378864 C24.8668189,19.7463265 24.1801443,17.7242698 22.5130671,16.390093 C21.0761899,15.2398677 19.2909789,14.8321438 17.3519443,15.2088567 C14.6216635,15.7399197 11.7361316,17.8779151 10.3353013,20.4084814 C6.40155564,27.5131668 8.12680753,34.7052467 14.9510817,39.6469165 C19.8091969,43.1656052 19.5907744,46.7086094 19.2709925,48.0681588 C18.8013129,50.0666049 17.2434468,51.5797996 15.3022708,51.9223299 C12.6294509,52.3977141 9.76568976,50.6744905 7.4451296,47.2033754 C-1.10867927,33.7009139 3.05562339,15.8452865 16.7330806,7.39479518 C30.4144638,-1.05781055 48.5135481,3.05114396 57.0777071,16.5546626 C58.952143,19.5105726 60.2166377,22.6751019 60.9054536,25.9041199 C61.3969041,30.6435135 59.9489631,33.8143859 57.1091143,34.18687 L57.1091143,34.18687 Z" id="corona" fill="#1C39BB" sketch:type="MSShapeGroup"></path>
    </g>
</svg>