<?xml version="1.0" encoding="UTF-8" standalone="no"?>
<svg width="90px" height="118px" viewBox="0 0 90 118" version="1.1" xmlns="http://www.w3.org/2000/svg" xmlns:xlink="http://www.w3.org/1999/xlink" xmlns:sketch="http://www.bohemiancoding.com/sketch/ns">
    <!-- Generator: Sketch 3.1 (8751) - http://www.bohemiancoding.com/sketch -->
    <title>product_design</title>
    <desc>Created with Sketch.</desc>
    <defs></defs>
    <g id="Page-1" stroke="none" stroke-width="1" fill="none" fill-rule="evenodd" sketch:type="MSPage">
        <path d="M89.9672938,74.5731142 C89.9652938,74.5671142 89.9692938,74.5611142 89.9672938,74.5531142 L80.6812938,37.1131142 C80.6492938,36.9811142 80.5892938,36.8591142 80.5092938,36.7491142 L65.4732938,16.8391142 C65.4212938,16.7691142 65.3432938,16.7211142 65.2732938,16.6671142 C65.2472938,16.6471142 65.2372938,16.6151142 65.2092938,16.5971142 C65.2012938,16.5911142 65.1912938,16.5931142 65.1832938,16.5891142 C65.1712938,16.5831142 65.1652938,16.5711142 65.1552938,16.5651142 L35.1032938,0.127114166 C35.0992938,0.125114166 35.0972938,0.125114166 35.0932938,0.123114166 L35.0852938,0.117114166 C35.0812938,0.115114166 35.0772938,0.117114166 35.0732938,0.115114166 C34.9652938,0.0591141659 34.8492938,0.0151141659 34.7212938,0.00111416594 C34.6592938,-0.00488583406 34.6032938,0.0151141659 34.5432938,0.0191141659 C34.4992938,0.0231141659 34.4612938,0.0231141659 34.4172938,0.0331141659 C34.2412938,0.0691141659 34.0832938,0.143114166 33.9512938,0.259114166 C33.9392938,0.269114166 33.9192938,0.269114166 33.9072938,0.281114166 L20.6392938,13.2651142 C20.6232938,13.2811142 20.6132938,13.3031142 20.5972938,13.3211142 C20.5852938,13.3331142 20.5712938,13.3391142 20.5592938,13.3531142 C20.5452938,13.3711142 20.5432938,13.3931142 20.5292938,13.4111142 C20.5072938,13.4431142 20.4752938,13.4711142 20.4572938,13.5071142 L10.7292938,31.6871142 C10.6872938,31.7651142 10.6572938,31.8451142 10.6372938,31.9311142 L0.0232937786,76.9471142 C0.0212937786,76.9611142 0.0312937786,76.9751142 0.0272937786,76.9891142 C0.00729377858,77.0911142 -0.00870622142,77.1951142 0.00529377858,77.3031142 C0.0152937786,77.3791142 0.0512937786,77.4411142 0.0752937786,77.5091142 C0.0832937786,77.5311142 0.0732937786,77.5551142 0.0812937786,77.5751142 L8.04129378,95.7531142 C8.06929378,95.8191142 8.11529378,95.8771142 8.15929378,95.9351142 C8.17529378,95.9591142 8.18529378,95.9851142 8.20529378,96.0071142 C8.20729378,96.0111142 8.20929378,96.0151142 8.21129378,96.0191142 L17.4992938,106.407114 C17.5152938,106.427114 17.5452938,106.431114 17.5632938,106.449114 C17.6512938,106.535114 17.7512938,106.599114 17.8692938,106.649114 C17.8932938,106.659114 17.9112938,106.683114 17.9372938,106.693114 L52.8712938,117.947114 C52.9712938,117.979114 53.0752938,117.995114 53.1772938,117.995114 L53.1792938,117.995114 C53.1812938,117.995114 53.1832938,117.993114 53.1852938,117.993114 C53.3392938,117.993114 53.4912938,117.957114 53.6292938,117.887114 L77.5092938,105.769114 C77.5332938,105.757114 77.5472938,105.737114 77.5692938,105.723114 C77.5872938,105.713114 77.6072938,105.711114 77.6232938,105.699114 C77.6512938,105.681114 77.6652938,105.651114 77.6912938,105.631114 C77.7492938,105.583114 77.8012938,105.531114 77.8452938,105.471114 C77.8792938,105.427114 77.9072938,105.381114 77.9332938,105.333114 C77.9492938,105.301114 77.9752938,105.277114 77.9872938,105.245114 L89.9272938,75.1631142 C89.9352938,75.1431142 89.9252938,75.1211142 89.9312938,75.1011142 C89.9892938,74.9271142 90.0072938,74.7471142 89.9672938,74.5731142 L89.9672938,74.5731142 Z M76.8212938,102.761114 L59.7632938,77.8511142 L72.1912938,64.6291142 L87.7712938,75.1711142 L76.8212938,102.761114 L76.8212938,102.761114 Z M53.5492938,115.685114 L46.3632938,103.963114 L58.6152938,79.7111142 L75.5892938,104.499114 L53.5492938,115.685114 L53.5492938,115.685114 Z M2.44929378,77.9971142 L26.9152938,74.8371142 L27.8112938,85.3411142 L19.7152938,90.9831142 L9.51529378,94.1331142 L2.44929378,77.9971142 L2.44929378,77.9971142 Z M11.6172938,36.4891142 L17.4172938,60.7691142 C17.4232938,60.7851142 17.4352938,60.7991142 17.4392938,60.8151142 C17.4572938,60.8771142 17.4892938,60.9311142 17.5172938,60.9871142 C17.5392938,61.0311142 17.5492938,61.0791142 17.5772938,61.1171142 L26.0372938,72.9331142 L2.30129378,75.9971142 L11.6172938,36.4891142 L11.6172938,36.4891142 Z M21.6512938,15.5151142 L30.9992938,23.0351142 L27.9012938,38.4411142 L18.7092938,57.5651142 L12.6712938,32.2971142 L21.6512938,15.5151142 L21.6512938,15.5151142 Z M44.9852938,102.255114 L30.6852938,86.3671142 L56.5772938,79.3071142 L44.9852938,102.255114 L44.9852938,102.255114 Z M29.7512938,84.5511142 L28.9252938,74.8671142 L53.4272938,78.0931142 L29.7512938,84.5511142 L29.7512938,84.5511142 Z M58.1072938,76.6911142 L28.3852938,72.7771142 L19.5492938,60.4351142 L29.6352938,39.4511142 L47.2852938,28.2431142 L62.3592938,43.5491142 L70.8672938,63.1171142 L58.1072938,76.6911142 L58.1072938,76.6911142 Z M32.8672938,23.8931142 L45.0052938,27.3211142 L30.2992938,36.6611142 L32.8672938,23.8931142 L32.8672938,23.8931142 Z M62.3332938,40.6731142 L49.0672938,27.2031142 L63.5732938,19.1951142 L62.3332938,40.6731142 L62.3332938,40.6731142 Z M47.3052938,25.8911142 L33.1912938,21.9071142 L35.4272938,2.58511417 L62.6012938,17.4471142 L47.3052938,25.8911142 L47.3052938,25.8911142 Z M31.3152938,20.7231142 L22.8432938,13.9071142 L33.2872938,3.68311417 L31.3152938,20.7231142 L31.3152938,20.7231142 Z M18.9532938,93.3111142 L17.5492938,103.463114 L10.7412938,95.8471142 L18.9532938,93.3111142 L18.9532938,93.3111142 Z M21.0892938,92.4611142 L28.7032938,87.1571142 L44.4132938,104.613114 L50.9132938,115.215114 L19.3492938,105.047114 L21.0892938,92.4611142 L21.0892938,92.4611142 Z M87.3992938,72.5051142 L72.8472938,62.6571142 L64.2132938,42.7991142 L65.5172938,20.2151142 L78.7912938,37.7911142 L87.3992938,72.5051142 L87.3992938,72.5051142 Z" id="product_design" fill="#1C39BB" sketch:type="MSShapeGroup"></path>
    </g>
</svg>