<?xml version="1.0" encoding="UTF-8" standalone="no"?>
<svg width="48px" height="50px" viewBox="0 0 48 50" version="1.1" xmlns="http://www.w3.org/2000/svg" xmlns:xlink="http://www.w3.org/1999/xlink" xmlns:sketch="http://www.bohemiancoding.com/sketch/ns">
    <!-- Generator: Sketch 3.1 (8751) - http://www.bohemiancoding.com/sketch -->
    <title>retail_design</title>
    <desc>Created with Sketch.</desc>
    <defs></defs>
    <g id="Page-1" stroke="none" stroke-width="1" fill="none" fill-rule="evenodd" sketch:type="MSPage">
        <g id="retail_design" sketch:type="MSLayerGroup" transform="translate(0.000000, 1.000000)" fill="#FFFFFF">
            <path d="M47,-0.5 L1,-0.5 C0.724,-0.5 0.5,-0.276 0.5,0 L0.5,38 C0.5,38.276 0.724,38.5 1,38.5 L47,38.5 C47.276,38.5 47.5,38.276 47.5,38 L47.5,0 C47.5,-0.276 47.276,-0.5 47,-0.5 L47,-0.5 Z M1.5,0.5 L7.5,0.5 L7.5,30.793 L4.646,33.647 C4.451,33.842 4.451,34.158 4.646,34.353 C4.842,34.549 5.158,34.549 5.353,34.353 L8,31.707 L10.646,34.353 C10.744,34.451 10.872,34.5 11,34.5 C11.128,34.5 11.256,34.451 11.353,34.353 C11.549,34.158 11.549,33.842 11.353,33.647 L8.5,30.793 L8.5,0.5 L14.5,0.5 L14.5,37.5 L1.5,37.5 L1.5,0.5 L1.5,0.5 Z M15.5,0.5 L46.5,0.5 L46.5,37.5 L15.5,37.5 L15.5,0.5 Z M13,41.5 C11.07,41.5 9.5,43.07 9.5,45 C9.5,46.93 11.07,48.5 13,48.5 C14.93,48.5 16.5,46.93 16.5,45 C16.5,43.07 14.93,41.5 13,41.5 L13,41.5 Z M13,47.5 C11.622,47.5 10.5,46.379 10.5,45 C10.5,43.621 11.622,42.5 13,42.5 C14.378,42.5 15.5,43.621 15.5,45 C15.5,46.379 14.378,47.5 13,47.5 L13,47.5 Z M35,41.5 C33.07,41.5 31.5,43.07 31.5,45 C31.5,46.93 33.07,48.5 35,48.5 C36.93,48.5 38.5,46.93 38.5,45 C38.5,43.07 36.93,41.5 35,41.5 L35,41.5 Z M35,47.5 C33.621,47.5 32.5,46.379 32.5,45 C32.5,43.621 33.621,42.5 35,42.5 C36.379,42.5 37.5,43.621 37.5,45 C37.5,46.379 36.379,47.5 35,47.5 L35,47.5 Z" id="Fill-1" sketch:type="MSShapeGroup"></path>
            <path d="M32,12.5 C36.136,12.5 39.5,9.136 39.5,5 C39.5,4.724 39.276,4.5 39,4.5 C38.724,4.5 38.5,4.724 38.5,5 C38.5,8.584 35.584,11.5 32,11.5 C28.416,11.5 25.5,8.584 25.5,5 C25.5,4.724 25.276,4.5 25,4.5 C24.724,4.5 24.5,4.724 24.5,5 C24.5,9.136 27.864,12.5 32,12.5" id="Fill-2" sketch:type="MSShapeGroup"></path>
        </g>
    </g>
</svg>