<?xml version="1.0" encoding="UTF-8" standalone="no"?>
<svg width="48px" height="50px" viewBox="0 0 48 50" version="1.1" xmlns="http://www.w3.org/2000/svg" xmlns:xlink="http://www.w3.org/1999/xlink" xmlns:sketch="http://www.bohemiancoding.com/sketch/ns">
    <!-- Generator: Sketch 3.1 (8751) - http://www.bohemiancoding.com/sketch -->
    <title>retail_design</title>
    <desc>Created with Sketch.</desc>
    <defs></defs>
    <g id="Page-1" stroke="none" stroke-width="1" fill="none" fill-rule="evenodd" sketch:type="MSPage">
        <g id="retail_design" sketch:type="MSLayerGroup" transform="translate(1.000000, 0.000000)" fill="#000000">
            <path d="M46,0.5 L0,0.5 C-0.276,0.5 -0.5,0.724 -0.5,1 L-0.5,39 C-0.5,39.276 -0.276,39.5 0,39.5 L46,39.5 C46.276,39.5 46.5,39.276 46.5,39 L46.5,1 C46.5,0.724 46.276,0.5 46,0.5 L46,0.5 Z M0.5,1.5 L6.5,1.5 L6.5,31.793 L3.646,34.647 C3.451,34.842 3.451,35.158 3.646,35.353 C3.842,35.549 4.158,35.549 4.353,35.353 L7,32.707 L9.646,35.353 C9.744,35.451 9.872,35.5 10,35.5 C10.128,35.5 10.256,35.451 10.353,35.353 C10.549,35.158 10.549,34.842 10.353,34.647 L7.5,31.793 L7.5,1.5 L13.5,1.5 L13.5,38.5 L0.5,38.5 L0.5,1.5 L0.5,1.5 Z M14.5,1.5 L45.5,1.5 L45.5,38.5 L14.5,38.5 L14.5,1.5 Z M12,42.5 C10.07,42.5 8.5,44.07 8.5,46 C8.5,47.93 10.07,49.5 12,49.5 C13.93,49.5 15.5,47.93 15.5,46 C15.5,44.07 13.93,42.5 12,42.5 L12,42.5 Z M12,48.5 C10.622,48.5 9.5,47.379 9.5,46 C9.5,44.621 10.622,43.5 12,43.5 C13.378,43.5 14.5,44.621 14.5,46 C14.5,47.379 13.378,48.5 12,48.5 L12,48.5 Z M34,42.5 C32.07,42.5 30.5,44.07 30.5,46 C30.5,47.93 32.07,49.5 34,49.5 C35.93,49.5 37.5,47.93 37.5,46 C37.5,44.07 35.93,42.5 34,42.5 L34,42.5 Z M34,48.5 C32.621,48.5 31.5,47.379 31.5,46 C31.5,44.621 32.621,43.5 34,43.5 C35.379,43.5 36.5,44.621 36.5,46 C36.5,47.379 35.379,48.5 34,48.5 L34,48.5 Z" id="Fill-1" sketch:type="MSShapeGroup"></path>
            <path d="M31,13.5 C35.136,13.5 38.5,10.136 38.5,6 C38.5,5.724 38.276,5.5 38,5.5 C37.724,5.5 37.5,5.724 37.5,6 C37.5,9.584 34.584,12.5 31,12.5 C27.416,12.5 24.5,9.584 24.5,6 C24.5,5.724 24.276,5.5 24,5.5 C23.724,5.5 23.5,5.724 23.5,6 C23.5,10.136 26.864,13.5 31,13.5" id="Fill-2" sketch:type="MSShapeGroup"></path>
        </g>
    </g>
</svg>