<?xml version="1.0" encoding="UTF-8" standalone="no"?>
<svg width="114px" height="98px" viewBox="0 0 114 98" version="1.1" xmlns="http://www.w3.org/2000/svg" xmlns:xlink="http://www.w3.org/1999/xlink" xmlns:sketch="http://www.bohemiancoding.com/sketch/ns">
    <!-- Generator: Sketch 3.1 (8751) - http://www.bohemiancoding.com/sketch -->
    <title>service_design</title>
    <desc>Created with Sketch.</desc>
    <defs></defs>
    <g id="Page-1" stroke="none" stroke-width="1" fill="none" fill-rule="evenodd" sketch:type="MSPage">
        <path d="M112.020612,11.3744281 C113.204612,9.95242814 113.768612,8.15442814 113.600612,6.30842814 C113.434612,4.46242814 112.558612,2.79442814 111.134612,1.60842814 C108.204612,-0.837571859 103.828612,-0.443571859 101.408612,2.44842814 C98.566612,5.53842814 94.874612,9.55042814 92.220612,12.4264281 C92.264612,12.0364281 92.338612,11.6544281 92.338612,11.2524281 C92.338612,5.52442814 87.682612,0.864428141 81.956612,0.864428141 C76.230612,0.864428141 71.570612,5.52442814 71.570612,11.2524281 C71.570612,11.5924281 71.638612,11.9164281 71.672612,12.2484281 L63.004612,2.48242814 C61.572612,0.774428141 59.486612,-0.133571859 57.362612,0.0164281414 C55.160612,-0.129571859 52.986612,0.798428141 51.628612,2.44442814 C48.722612,5.56842814 44.968612,9.60442814 42.218612,12.5504281 C42.272612,12.1224281 42.350612,11.7004281 42.350612,11.2564281 C42.350612,5.52642814 37.690612,0.864428141 31.962612,0.864428141 C26.238612,0.864428141 21.582612,5.52642814 21.582612,11.2564281 C21.582612,11.7084281 21.660612,12.1384281 21.716612,12.5764281 L12.248612,2.48642814 C11.062612,1.06442814 9.39461204,0.192428141 7.55061204,0.0264281414 C5.70661204,-0.129571859 3.90861204,0.424428141 2.48861204,1.60842814 C1.06861204,2.79042814 0.196612042,4.45842814 0.028612042,6.30042814 C-0.137387958,8.15042814 0.422612042,9.95242814 1.61261204,11.3744281 L18.304612,31.3544281 L18.418612,46.2164281 L15.832612,90.4564281 C15.700612,92.3344281 16.304612,94.1504281 17.538612,95.5744281 C18.776612,96.9964281 20.492612,97.8524281 22.372612,97.9824281 C22.538612,97.9944281 22.704612,97.9984281 22.868612,97.9984281 C24.568612,97.9984281 26.194612,97.3944281 27.486612,96.2724281 C28.906612,95.0364281 29.760612,93.3204281 29.888612,91.4324281 L31.886612,58.3624281 C32.062612,58.3684281 32.240612,58.3624281 32.420612,58.3584281 L35.064612,91.4384281 C35.190612,93.3104281 36.038612,95.0224281 37.450612,96.2564281 C38.872612,97.5004281 40.712612,98.1124281 42.586612,97.9824281 C44.464612,97.8524281 46.180612,96.9964281 47.418612,95.5724281 C48.654612,94.1484281 49.262612,92.3324281 49.128612,90.4524281 L45.686612,45.9324281 L45.754612,30.3544281 L56.682612,17.2724281 L68.438612,31.3544281 L68.438612,36.4924281 L62.764612,67.0264281 C62.710612,67.3184281 62.788612,67.6184281 62.976612,67.8484281 C63.168612,68.0764281 63.450612,68.2104281 63.746612,68.2104281 L67.390612,68.2104281 L65.956612,90.4584281 C65.692612,94.3404281 68.624612,97.7144281 72.498612,97.9824281 C72.664612,97.9944281 72.828612,97.9984281 72.994612,97.9984281 C74.698612,97.9984281 76.324612,97.3944281 77.620612,96.2724281 C79.042612,95.0384281 79.898612,93.3204281 80.028612,91.4364281 L81.512612,68.2104281 L83.222612,68.2104281 L85.180612,91.4444281 C85.462612,95.3164281 88.890612,98.2584281 92.708612,97.9824281 C96.586612,97.7144281 99.524612,94.3404281 99.256612,90.4444281 L97.362612,68.2104281 L100.920612,68.2104281 C101.216612,68.2104281 101.500612,68.0764281 101.690612,67.8484281 C101.880612,67.6184281 101.956612,67.3164281 101.902612,67.0244281 L95.888612,35.2484281 L95.888612,30.3564281 L112.020612,11.3744281 L112.020612,11.3744281 Z M73.570612,11.2524281 C73.570612,6.62642814 77.332612,2.86442814 81.956612,2.86442814 C86.578612,2.86442814 90.338612,6.62642814 90.338612,11.2524281 C90.338612,15.8744281 86.578612,19.6304281 81.956612,19.6304281 C79.670612,19.6304281 77.596612,18.7064281 76.082612,17.2184281 L75.840612,16.9444281 C74.444612,15.4484281 73.570612,13.4564281 73.570612,11.2524281 L73.570612,11.2524281 Z M31.962612,2.86442814 C36.588612,2.86442814 40.350612,6.62842814 40.350612,11.2564281 C40.350612,15.8784281 36.588612,19.6384281 31.962612,19.6384281 C27.342612,19.6384281 23.582612,15.8784281 23.582612,11.2564281 C23.582612,6.62842814 27.342612,2.86442814 31.962612,2.86442814 L31.962612,2.86442814 Z M96.274612,66.2084281 C95.994612,66.2084281 95.726612,66.3264281 95.538612,66.5344281 C95.348612,66.7384281 95.254612,67.0164281 95.278612,67.2944281 L97.262612,90.5964281 C97.454612,93.3764281 95.350612,95.7944281 92.572612,95.9864281 C89.770612,96.1764281 87.378612,94.0744281 87.174612,91.2884281 L85.138612,67.1264281 C85.096612,66.6084281 84.662612,66.2084281 84.142612,66.2084281 L80.574612,66.2084281 C80.046612,66.2084281 79.610612,66.6204281 79.576612,67.1444281 L78.032612,91.3024281 C77.940612,92.6484281 77.328612,93.8764281 76.308612,94.7604281 C75.292612,95.6444281 73.996612,96.0784281 72.634612,95.9864281 C69.864612,95.7944281 67.762612,93.3764281 67.954612,90.5924281 L69.454612,67.2744281 C69.472612,66.9984281 69.374612,66.7264281 69.186612,66.5264281 C68.998612,66.3244281 68.734612,66.2084281 68.456612,66.2084281 L64.950612,66.2084281 L70.420612,36.7664281 C70.426612,36.7344281 70.416612,36.7064281 70.418612,36.6764281 C70.422612,36.6444281 70.438612,36.6164281 70.438612,36.5824281 L70.438612,30.9904281 C70.438612,30.7564281 70.356612,30.5304281 70.204612,30.3504281 L57.450612,15.0704281 C57.260612,14.8424281 56.978612,14.7104281 56.682612,14.7104281 C56.384612,14.7104281 56.104612,14.8424281 55.914612,15.0704281 L43.988612,29.3484281 C43.840612,29.5264281 43.758612,29.7524281 43.756612,29.9844281 L43.686612,45.9524281 C43.686612,45.9664281 43.694612,45.9784281 43.694612,45.9944281 C43.694612,46.0064281 43.688612,46.0184281 43.690612,46.0324281 L47.132612,90.5984281 C47.228612,91.9424281 46.792612,93.2404281 45.908612,94.2604281 C45.022612,95.2824281 43.792612,95.8944281 42.450612,95.9864281 C41.090612,96.0824281 39.786612,95.6404281 38.766612,94.7504281 C37.756612,93.8684281 37.150612,92.6444281 37.058612,91.2904281 L34.334612,57.2124281 C34.312612,56.9444281 34.184612,56.6944281 33.972612,56.5224281 C33.764612,56.3504281 33.494612,56.2684281 33.224612,56.2984281 C32.532612,56.3784281 31.948612,56.3804281 31.024612,56.3084281 C30.784612,56.2964281 30.494612,56.3784281 30.290612,56.5524281 C30.090612,56.7284281 29.966612,56.9784281 29.952612,57.2464281 L27.892612,91.3024281 C27.800612,92.6504281 27.190612,93.8764281 26.174612,94.7624281 C25.160612,95.6444281 23.868612,96.0764281 22.510612,95.9864281 C21.164612,95.8944281 19.936612,95.2824281 19.050612,94.2624281 C18.166612,93.2444281 17.732612,91.9444281 17.828612,90.5864281 L20.416612,46.2964281 C20.416612,46.2864281 20.412612,46.2764281 20.412612,46.2644281 C20.412612,46.2524281 20.418612,46.2424281 20.418612,46.2304281 L20.302612,30.9804281 C20.300612,30.7484281 20.218612,30.5264281 20.070612,30.3484281 L3.14661204,10.0944281 C2.30061204,9.08042814 1.90061204,7.79842814 2.02061204,6.48242814 C2.13861204,5.17042814 2.76061204,3.98442814 3.77061204,3.14442814 C4.78461204,2.29842814 6.06861204,1.90042814 7.37061204,2.01842814 C8.68461204,2.13442814 9.87061204,2.75842814 10.752612,3.81042814 L24.324612,18.2764281 C24.352612,18.3044281 24.388612,18.3184281 24.418612,18.3424281 C26.314612,20.3604281 28.984612,21.6384281 31.962612,21.6384281 C35.522612,21.6384281 38.664612,19.8364281 40.538612,17.1004281 C42.174612,15.5444281 45.556612,11.9104281 53.128612,3.76442814 C54.120612,2.56842814 55.650612,1.93242814 57.362612,2.01242814 C58.930612,1.90242814 60.452612,2.54842814 61.490612,3.78842814 L74.528612,18.4824281 C74.568612,18.5224281 74.600612,18.5684281 74.640612,18.6084281 L74.670612,18.6404281 C74.696612,18.6704281 74.734612,18.6824281 74.764612,18.7084281 C76.632612,20.5104281 79.162612,21.6304281 81.956612,21.6304281 C85.610612,21.6304281 88.814612,19.7244281 90.664612,16.8644281 C92.182612,15.4344281 95.398612,11.9384281 102.912612,3.76842814 C104.654612,1.68642814 107.766612,1.40642814 109.854612,3.14242814 C110.868612,3.98642814 111.490612,5.17642814 111.610612,6.49042814 C111.726612,7.80242814 111.328612,9.08242814 110.490612,10.0864281 L94.128612,29.3404281 C94.096612,29.3764281 94.084612,29.4224281 94.060612,29.4624281 C94.022612,29.5224281 93.982612,29.5784281 93.958612,29.6464281 C93.934612,29.7124281 93.926612,29.7804281 93.916612,29.8484281 C93.910612,29.8964281 93.888612,29.9384281 93.888612,29.9884281 L93.888612,35.3424281 C93.888612,35.3744281 93.904612,35.4024281 93.908612,35.4344281 C93.910612,35.4664281 93.900612,35.4964281 93.906612,35.5284281 L99.712612,66.2084281 L96.274612,66.2084281 L96.274612,66.2084281 Z" id="service_design" fill="#1C39BB" sketch:type="MSShapeGroup"></path>
    </g>
</svg>