<?xml version="1.0" encoding="UTF-8" standalone="no"?>
<svg width="57px" height="49px" viewBox="0 0 57 49" version="1.1" xmlns="http://www.w3.org/2000/svg" xmlns:xlink="http://www.w3.org/1999/xlink" xmlns:sketch="http://www.bohemiancoding.com/sketch/ns">
    <!-- Generator: Sketch 3.1 (8751) - http://www.bohemiancoding.com/sketch -->
    <title>service_design</title>
    <desc>Created with Sketch.</desc>
    <defs></defs>
    <g id="Page-1" stroke="none" stroke-width="1" fill="none" fill-rule="evenodd" sketch:type="MSPage">
        <path d="M56.010306,5.68721407 C56.602306,4.97621407 56.884306,4.07721407 56.800306,3.15421407 C56.717306,2.23121407 56.279306,1.39721407 55.567306,0.804214071 C54.102306,-0.418785929 51.914306,-0.221785929 50.704306,1.22421407 C49.283306,2.76921407 47.437306,4.77521407 46.110306,6.21321407 C46.132306,6.01821407 46.169306,5.82721407 46.169306,5.62621407 C46.169306,2.76221407 43.841306,0.432214071 40.978306,0.432214071 C38.115306,0.432214071 35.785306,2.76221407 35.785306,5.62621407 C35.785306,5.79621407 35.819306,5.95821407 35.836306,6.12421407 L31.502306,1.24121407 C30.786306,0.387214071 29.743306,-0.0667859293 28.681306,0.00821407072 C27.580306,-0.0647859293 26.493306,0.399214071 25.814306,1.22221407 C24.361306,2.78421407 22.484306,4.80221407 21.109306,6.27521407 C21.136306,6.06121407 21.175306,5.85021407 21.175306,5.62821407 C21.175306,2.76321407 18.845306,0.432214071 15.981306,0.432214071 C13.119306,0.432214071 10.791306,2.76321407 10.791306,5.62821407 C10.791306,5.85421407 10.830306,6.06921407 10.858306,6.28821407 L6.12430602,1.24321407 C5.53130602,0.532214071 4.69730602,0.0962140707 3.77530602,0.0132140707 C2.85330602,-0.0647859293 1.95430602,0.212214071 1.24430602,0.804214071 C0.534306021,1.39521407 0.098306021,2.22921407 0.014306021,3.15021407 C-0.068693979,4.07521407 0.211306021,4.97621407 0.806306021,5.68721407 L9.15230602,15.6772141 L9.20930602,23.1082141 L7.91630602,45.2282141 C7.85030602,46.1672141 8.15230602,47.0752141 8.76930602,47.7872141 C9.38830602,48.4982141 10.246306,48.9262141 11.186306,48.9912141 C11.269306,48.9972141 11.352306,48.9992141 11.434306,48.9992141 C12.284306,48.9992141 13.097306,48.6972141 13.743306,48.1362141 C14.453306,47.5182141 14.880306,46.6602141 14.944306,45.7162141 L15.943306,29.1812141 C16.031306,29.1842141 16.120306,29.1812141 16.210306,29.1792141 L17.532306,45.7192141 C17.595306,46.6552141 18.019306,47.5112141 18.725306,48.1282141 C19.436306,48.7502141 20.356306,49.0562141 21.293306,48.9912141 C22.232306,48.9262141 23.090306,48.4982141 23.709306,47.7862141 C24.327306,47.0742141 24.631306,46.1662141 24.564306,45.2262141 L22.843306,22.9662141 L22.877306,15.1772141 L28.341306,8.63621407 L34.219306,15.6772141 L34.219306,18.2462141 L31.382306,33.5132141 C31.355306,33.6592141 31.394306,33.8092141 31.488306,33.9242141 C31.584306,34.0382141 31.725306,34.1052141 31.873306,34.1052141 L33.695306,34.1052141 L32.978306,45.2292141 C32.846306,47.1702141 34.312306,48.8572141 36.249306,48.9912141 C36.332306,48.9972141 36.414306,48.9992141 36.497306,48.9992141 C37.349306,48.9992141 38.162306,48.6972141 38.810306,48.1362141 C39.521306,47.5192141 39.949306,46.6602141 40.014306,45.7182141 L40.756306,34.1052141 L41.611306,34.1052141 L42.590306,45.7222141 C42.731306,47.6582141 44.445306,49.1292141 46.354306,48.9912141 C48.293306,48.8572141 49.762306,47.1702141 49.628306,45.2222141 L48.681306,34.1052141 L50.460306,34.1052141 C50.608306,34.1052141 50.750306,34.0382141 50.845306,33.9242141 C50.940306,33.8092141 50.978306,33.6582141 50.951306,33.5122141 L47.944306,17.6242141 L47.944306,15.1782141 L56.010306,5.68721407 L56.010306,5.68721407 Z M36.785306,5.62621407 C36.785306,3.31321407 38.666306,1.43221407 40.978306,1.43221407 C43.289306,1.43221407 45.169306,3.31321407 45.169306,5.62621407 C45.169306,7.93721407 43.289306,9.81521407 40.978306,9.81521407 C39.835306,9.81521407 38.798306,9.35321407 38.041306,8.60921407 L37.920306,8.47221407 C37.222306,7.72421407 36.785306,6.72821407 36.785306,5.62621407 L36.785306,5.62621407 Z M15.981306,1.43221407 C18.294306,1.43221407 20.175306,3.31421407 20.175306,5.62821407 C20.175306,7.93921407 18.294306,9.81921407 15.981306,9.81921407 C13.671306,9.81921407 11.791306,7.93921407 11.791306,5.62821407 C11.791306,3.31421407 13.671306,1.43221407 15.981306,1.43221407 L15.981306,1.43221407 Z M48.137306,33.1042141 C47.997306,33.1042141 47.863306,33.1632141 47.769306,33.2672141 C47.674306,33.3692141 47.627306,33.5082141 47.639306,33.6472141 L48.631306,45.2982141 C48.727306,46.6882141 47.675306,47.8972141 46.286306,47.9932141 C44.885306,48.0882141 43.689306,47.0372141 43.587306,45.6442141 L42.569306,33.5632141 C42.548306,33.3042141 42.331306,33.1042141 42.071306,33.1042141 L40.287306,33.1042141 C40.023306,33.1042141 39.805306,33.3102141 39.788306,33.5722141 L39.016306,45.6512141 C38.970306,46.3242141 38.664306,46.9382141 38.154306,47.3802141 C37.646306,47.8222141 36.998306,48.0392141 36.317306,47.9932141 C34.932306,47.8972141 33.881306,46.6882141 33.977306,45.2962141 L34.727306,33.6372141 C34.736306,33.4992141 34.687306,33.3632141 34.593306,33.2632141 C34.499306,33.1622141 34.367306,33.1042141 34.228306,33.1042141 L32.475306,33.1042141 L35.210306,18.3832141 C35.213306,18.3672141 35.208306,18.3532141 35.209306,18.3382141 C35.211306,18.3222141 35.219306,18.3082141 35.219306,18.2912141 L35.219306,15.4952141 C35.219306,15.3782141 35.178306,15.2652141 35.102306,15.1752141 L28.725306,7.53521407 C28.630306,7.42121407 28.489306,7.35521407 28.341306,7.35521407 C28.192306,7.35521407 28.052306,7.42121407 27.957306,7.53521407 L21.994306,14.6742141 C21.920306,14.7632141 21.879306,14.8762141 21.878306,14.9922141 L21.843306,22.9762141 C21.843306,22.9832141 21.847306,22.9892141 21.847306,22.9972141 C21.847306,23.0032141 21.844306,23.0092141 21.845306,23.0162141 L23.566306,45.2992141 C23.614306,45.9712141 23.396306,46.6202141 22.954306,47.1302141 C22.511306,47.6412141 21.896306,47.9472141 21.225306,47.9932141 C20.545306,48.0412141 19.893306,47.8202141 19.383306,47.3752141 C18.878306,46.9342141 18.575306,46.3222141 18.529306,45.6452141 L17.167306,28.6062141 C17.156306,28.4722141 17.092306,28.3472141 16.986306,28.2612141 C16.882306,28.1752141 16.747306,28.1342141 16.612306,28.1492141 C16.266306,28.1892141 15.974306,28.1902141 15.512306,28.1542141 C15.392306,28.1482141 15.247306,28.1892141 15.145306,28.2762141 C15.045306,28.3642141 14.983306,28.4892141 14.976306,28.6232141 L13.946306,45.6512141 C13.900306,46.3252141 13.595306,46.9382141 13.087306,47.3812141 C12.580306,47.8222141 11.934306,48.0382141 11.255306,47.9932141 C10.582306,47.9472141 9.96830602,47.6412141 9.52530602,47.1312141 C9.08330602,46.6222141 8.86630602,45.9722141 8.91430602,45.2932141 L10.208306,23.1482141 C10.208306,23.1432141 10.206306,23.1382141 10.206306,23.1322141 C10.206306,23.1262141 10.209306,23.1212141 10.209306,23.1152141 L10.151306,15.4902141 C10.150306,15.3742141 10.109306,15.2632141 10.035306,15.1742141 L1.57330602,5.04721407 C1.15030602,4.54021407 0.950306021,3.89921407 1.01030602,3.24121407 C1.06930602,2.58521407 1.38030602,1.99221407 1.88530602,1.57221407 C2.39230602,1.14921407 3.03430602,0.950214071 3.68530602,1.00921407 C4.34230602,1.06721407 4.93530602,1.37921407 5.37630602,1.90521407 L12.162306,9.13821407 C12.176306,9.15221407 12.194306,9.15921407 12.209306,9.17121407 C13.157306,10.1802141 14.492306,10.8192141 15.981306,10.8192141 C17.761306,10.8192141 19.332306,9.91821407 20.269306,8.55021407 C21.087306,7.77221407 22.778306,5.95521407 26.564306,1.88221407 C27.060306,1.28421407 27.825306,0.966214071 28.681306,1.00621407 C29.465306,0.951214071 30.226306,1.27421407 30.745306,1.89421407 L37.264306,9.24121407 C37.284306,9.26121407 37.300306,9.28421407 37.320306,9.30421407 L37.335306,9.32021407 C37.348306,9.33521407 37.367306,9.34121407 37.382306,9.35421407 C38.316306,10.2552141 39.581306,10.8152141 40.978306,10.8152141 C42.805306,10.8152141 44.407306,9.86221407 45.332306,8.43221407 C46.091306,7.71721407 47.699306,5.96921407 51.456306,1.88421407 C52.327306,0.843214071 53.883306,0.703214071 54.927306,1.57121407 C55.434306,1.99321407 55.745306,2.58821407 55.805306,3.24521407 C55.863306,3.90121407 55.664306,4.54121407 55.245306,5.04321407 L47.064306,14.6702141 C47.048306,14.6882141 47.042306,14.7112141 47.030306,14.7312141 C47.011306,14.7612141 46.991306,14.7892141 46.979306,14.8232141 C46.967306,14.8562141 46.963306,14.8902141 46.958306,14.9242141 C46.955306,14.9482141 46.944306,14.9692141 46.944306,14.9942141 L46.944306,17.6712141 C46.944306,17.6872141 46.952306,17.7012141 46.954306,17.7172141 C46.955306,17.7332141 46.950306,17.7482141 46.953306,17.7642141 L49.856306,33.1042141 L48.137306,33.1042141 L48.137306,33.1042141 Z" id="service_design" fill="#000000" sketch:type="MSShapeGroup"></path>
    </g>
</svg>