<?xml version="1.0" encoding="UTF-8" standalone="no"?>
<svg width="48px" height="48px" viewBox="0 0 48 48" version="1.1" xmlns="http://www.w3.org/2000/svg" xmlns:xlink="http://www.w3.org/1999/xlink" xmlns:sketch="http://www.bohemiancoding.com/sketch/ns">
    <!-- Generator: Sketch 3.1.1 (8761) - http://www.bohemiancoding.com/sketch -->
    <title>contact_toggle</title>
    <desc>Created with Sketch.</desc>
    <defs></defs>
    <g id="Page-1" stroke="none" stroke-width="1" fill="none" fill-rule="evenodd" sketch:type="MSPage">
        <path d="M18.171064,14.80325 C19.977064,12.99725 19.977064,10.06825 18.171064,8.26225 L13.264064,3.35525 C11.458064,1.54825 8.52806397,1.54825 6.72106397,3.35525 L4.03006397,6.04625 C1.69606397,8.38125 1.33406397,12.02325 3.15506397,14.77725 C10.973064,26.59725 21.404064,37.02625 33.223064,44.84525 C35.972064,46.66225 39.625064,46.30025 41.953064,43.96925 L44.645064,41.27825 C46.452064,39.47225 46.452064,36.54325 44.645064,34.73625 L39.738064,29.82925 C37.933064,28.02325 35.003064,28.02325 33.196064,29.82925 L31.561064,31.46525 C26.181064,27.05625 20.943064,21.81925 16.536064,16.43825 L18.171064,14.80325 L18.171064,14.80325 Z" id="contact_toggle" stroke="#1C39BB" stroke-width="3" stroke-linecap="round" stroke-linejoin="round" sketch:type="MSShapeGroup"></path>
    </g>
</svg>