<?xml version="1.0" encoding="UTF-8" standalone="no"?>
<svg width="50px" height="43px" viewBox="0 0 50 43" version="1.1" xmlns="http://www.w3.org/2000/svg" xmlns:xlink="http://www.w3.org/1999/xlink" xmlns:sketch="http://www.bohemiancoding.com/sketch/ns">
    <!-- Generator: Sketch 3.1.1 (8761) - http://www.bohemiancoding.com/sketch -->
    <title>contact-twitter</title>
    <desc>Created with Sketch.</desc>
    <defs></defs>
    <g id="Page-1" stroke="none" stroke-width="1" fill="none" fill-rule="evenodd" sketch:type="MSPage">
        <path d="M42.5810882,8.16619718 C44.5304925,6.94647887 46.0262957,5.01971831 46.7282972,2.72112676 C44.9030933,3.84788732 42.8861889,4.66760563 40.7342842,5.10704225 C39.0170805,3.1943662 36.5627751,2 33.8465692,2 C28.6382579,2 24.4127487,6.4084507 24.4127487,11.8450704 C24.4127487,12.6169014 24.4910489,13.3661972 24.6530492,14.0873239 C16.8122322,13.6760563 9.85971709,9.76056338 5.20220696,3.7971831 C4.38950519,5.25633803 3.92510419,6.94647887 3.92510419,8.75211268 C3.92510419,12.1661972 5.59100781,15.1802817 8.12361331,16.9464789 C6.57650995,16.8985915 5.12120679,16.4507042 3.84680401,15.7183099 L3.84680401,15.8394366 C3.84680401,20.6112676 7.09761108,24.5915493 11.4203205,25.4929577 C10.6265188,25.7239437 9.79491695,25.8394366 8.93091507,25.8394366 C8.32341375,25.8394366 7.72941246,25.7802817 7.15701121,25.6647887 C8.35581382,29.5746479 11.8415214,32.4225352 15.9698304,32.4985915 C12.7406233,35.1408451 8.6717145,36.715493 4.2518049,36.715493 C3.49040324,36.715493 2.7371016,36.6704225 2,36.5802817 C6.17690908,39.3690141 11.1368199,41 16.4666314,41 C33.8276692,41 43.3181898,26 43.3181898,12.9887324 C43.3181898,12.5605634 43.3100898,12.1323944 43.2911898,11.7126761 C45.1352938,10.3239437 46.7390973,8.58873239 48,6.61690141 C46.9739978,8.22253521 44.4872924,7.92957746 42.5810882,8.16619718 Z" id="contact-twitter" stroke="#1C39BB" stroke-width="3" stroke-linecap="round" stroke-linejoin="round" sketch:type="MSShapeGroup"></path>
    </g>
</svg>