<?xml version="1.0" encoding="UTF-8" standalone="no"?>
<svg width="45px" height="59px" viewBox="0 0 45 59" version="1.1" xmlns="http://www.w3.org/2000/svg" xmlns:xlink="http://www.w3.org/1999/xlink" xmlns:sketch="http://www.bohemiancoding.com/sketch/ns">
    <!-- Generator: Sketch 3.1 (8751) - http://www.bohemiancoding.com/sketch -->
    <title>product_design</title>
    <desc>Created with Sketch.</desc>
    <defs></defs>
    <g id="Page-1" stroke="none" stroke-width="1" fill="none" fill-rule="evenodd" sketch:type="MSPage">
        <path d="M44.9836469,37.2865571 C44.9826469,37.2835571 44.9846469,37.2805571 44.9836469,37.2765571 L40.3406469,18.5565571 C40.3246469,18.4905571 40.2946469,18.4295571 40.2546469,18.3745571 L32.7366469,8.41955708 C32.7106469,8.38455708 32.6716469,8.36055708 32.6366469,8.33355708 C32.6236469,8.32355708 32.6186469,8.30755708 32.6046469,8.29855708 C32.6006469,8.29555708 32.5956469,8.29655708 32.5916469,8.29455708 C32.5856469,8.29155708 32.5826469,8.28555708 32.5776469,8.28255708 L17.5516469,0.063557083 C17.5496469,0.062557083 17.5486469,0.062557083 17.5466469,0.061557083 L17.5426469,0.058557083 C17.5406469,0.057557083 17.5386469,0.058557083 17.5366469,0.057557083 C17.4826469,0.029557083 17.4246469,0.00755708297 17.3606469,0.00055708297 C17.3296469,-0.00244291703 17.3016469,0.00755708297 17.2716469,0.00955708297 C17.2496469,0.011557083 17.2306469,0.011557083 17.2086469,0.016557083 C17.1206469,0.034557083 17.0416469,0.071557083 16.9756469,0.129557083 C16.9696469,0.134557083 16.9596469,0.134557083 16.9536469,0.140557083 L10.3196469,6.63255708 C10.3116469,6.64055708 10.3066469,6.65155708 10.2986469,6.66055708 C10.2926469,6.66655708 10.2856469,6.66955708 10.2796469,6.67655708 C10.2726469,6.68555708 10.2716469,6.69655708 10.2646469,6.70555708 C10.2536469,6.72155708 10.2376469,6.73555708 10.2286469,6.75355708 L5.36464689,15.8435571 C5.34364689,15.8825571 5.32864689,15.9225571 5.31864689,15.9655571 L0.0116468893,38.4735571 C0.0106468893,38.4805571 0.0156468893,38.4875571 0.0136468893,38.4945571 C0.00364688929,38.5455571 -0.00435311071,38.5975571 0.00264688929,38.6515571 C0.00764688929,38.6895571 0.0256468893,38.7205571 0.0376468893,38.7545571 C0.0416468893,38.7655571 0.0366468893,38.7775571 0.0406468893,38.7875571 L4.02064689,47.8765571 C4.03464689,47.9095571 4.05764689,47.9385571 4.07964689,47.9675571 C4.08764689,47.9795571 4.09264689,47.9925571 4.10264689,48.0035571 C4.10364689,48.0055571 4.10464689,48.0075571 4.10564689,48.0095571 L8.74964689,53.2035571 C8.75764689,53.2135571 8.77264689,53.2155571 8.78164689,53.2245571 C8.82564689,53.2675571 8.87564689,53.2995571 8.93464689,53.3245571 C8.94664689,53.3295571 8.95564689,53.3415571 8.96864689,53.3465571 L26.4356469,58.9735571 C26.4856469,58.9895571 26.5376469,58.9975571 26.5886469,58.9975571 L26.5896469,58.9975571 C26.5906469,58.9975571 26.5916469,58.9965571 26.5926469,58.9965571 C26.6696469,58.9965571 26.7456469,58.9785571 26.8146469,58.9435571 L38.7546469,52.8845571 C38.7666469,52.8785571 38.7736469,52.8685571 38.7846469,52.8615571 C38.7936469,52.8565571 38.8036469,52.8555571 38.8116469,52.8495571 C38.8256469,52.8405571 38.8326469,52.8255571 38.8456469,52.8155571 C38.8746469,52.7915571 38.9006469,52.7655571 38.9226469,52.7355571 C38.9396469,52.7135571 38.9536469,52.6905571 38.9666469,52.6665571 C38.9746469,52.6505571 38.9876469,52.6385571 38.9936469,52.6225571 L44.9636469,37.5815571 C44.9676469,37.5715571 44.9626469,37.5605571 44.9656469,37.5505571 C44.9946469,37.4635571 45.0036469,37.3735571 44.9836469,37.2865571 L44.9836469,37.2865571 Z M38.4106469,51.3805571 L29.8816469,38.9255571 L36.0956469,32.3145571 L43.8856469,37.5855571 L38.4106469,51.3805571 L38.4106469,51.3805571 Z M26.7746469,57.8425571 L23.1816469,51.9815571 L29.3076469,39.8555571 L37.7946469,52.2495571 L26.7746469,57.8425571 L26.7746469,57.8425571 Z M1.22464689,38.9985571 L13.4576469,37.4185571 L13.9056469,42.6705571 L9.85764689,45.4915571 L4.75764689,47.0665571 L1.22464689,38.9985571 L1.22464689,38.9985571 Z M5.80864689,18.2445571 L8.70864689,30.3845571 C8.71164689,30.3925571 8.71764689,30.3995571 8.71964689,30.4075571 C8.72864689,30.4385571 8.74464689,30.4655571 8.75864689,30.4935571 C8.76964689,30.5155571 8.77464689,30.5395571 8.78864689,30.5585571 L13.0186469,36.4665571 L1.15064689,37.9985571 L5.80864689,18.2445571 L5.80864689,18.2445571 Z M10.8256469,7.75755708 L15.4996469,11.5175571 L13.9506469,19.2205571 L9.35464689,28.7825571 L6.33564689,16.1485571 L10.8256469,7.75755708 L10.8256469,7.75755708 Z M22.4926469,51.1275571 L15.3426469,43.1835571 L28.2886469,39.6535571 L22.4926469,51.1275571 L22.4926469,51.1275571 Z M14.8756469,42.2755571 L14.4626469,37.4335571 L26.7136469,39.0465571 L14.8756469,42.2755571 L14.8756469,42.2755571 Z M29.0536469,38.3455571 L14.1926469,36.3885571 L9.77464689,30.2175571 L14.8176469,19.7255571 L23.6426469,14.1215571 L31.1796469,21.7745571 L35.4336469,31.5585571 L29.0536469,38.3455571 L29.0536469,38.3455571 Z M16.4336469,11.9465571 L22.5026469,13.6605571 L15.1496469,18.3305571 L16.4336469,11.9465571 L16.4336469,11.9465571 Z M31.1666469,20.3365571 L24.5336469,13.6015571 L31.7866469,9.59755708 L31.1666469,20.3365571 L31.1666469,20.3365571 Z M23.6526469,12.9455571 L16.5956469,10.9535571 L17.7136469,1.29255708 L31.3006469,8.72355708 L23.6526469,12.9455571 L23.6526469,12.9455571 Z M15.6576469,10.3615571 L11.4216469,6.95355708 L16.6436469,1.84155708 L15.6576469,10.3615571 L15.6576469,10.3615571 Z M9.47664689,46.6555571 L8.77464689,51.7315571 L5.37064689,47.9235571 L9.47664689,46.6555571 L9.47664689,46.6555571 Z M10.5446469,46.2305571 L14.3516469,43.5785571 L22.2066469,52.3065571 L25.4566469,57.6075571 L9.67464689,52.5235571 L10.5446469,46.2305571 L10.5446469,46.2305571 Z M43.6996469,36.2525571 L36.4236469,31.3285571 L32.1066469,21.3995571 L32.7586469,10.1075571 L39.3956469,18.8955571 L43.6996469,36.2525571 L43.6996469,36.2525571 Z" id="product_design" fill="#FFFFFF" sketch:type="MSShapeGroup"></path>
    </g>
</svg>