<?xml version="1.0" encoding="UTF-8" standalone="no"?>
<svg width="94px" height="98px" viewBox="0 0 94 98" version="1.1" xmlns="http://www.w3.org/2000/svg" xmlns:xlink="http://www.w3.org/1999/xlink" xmlns:sketch="http://www.bohemiancoding.com/sketch/ns">
    <!-- Generator: Sketch 3.1 (8751) - http://www.bohemiancoding.com/sketch -->
    <title>retail_design</title>
    <desc>Created with Sketch.</desc>
    <defs></defs>
    <g id="Page-1" stroke="none" stroke-width="1" fill="none" fill-rule="evenodd" sketch:type="MSPage">
        <g id="retail_design" sketch:type="MSLayerGroup" transform="translate(-1.000000, 1.000000)" fill="#1C39BB">
            <path d="M94,-1 L2,-1 C1.448,-1 1,-0.552 1,1.11022302e-16 L1,76 C1,76.552 1.448,77 2,77 L94,77 C94.552,77 95,76.552 95,76 L95,1.11022302e-16 C95,-0.552 94.552,-1 94,-1 L94,-1 Z M3,1 L15,1 L15,61.586 L9.292,67.294 C8.902,67.684 8.902,68.316 9.292,68.706 C9.684,69.098 10.316,69.098 10.706,68.706 L16,63.414 L21.292,68.706 C21.488,68.902 21.744,69 22,69 C22.256,69 22.512,68.902 22.706,68.706 C23.098,68.316 23.098,67.684 22.706,67.294 L17,61.586 L17,1 L29,1 L29,75 L3,75 L3,1 L3,1 Z M31,1 L93,1 L93,75 L31,75 L31,1 Z M26,83 C22.14,83 19,86.14 19,90 C19,93.86 22.14,97 26,97 C29.86,97 33,93.86 33,90 C33,86.14 29.86,83 26,83 L26,83 Z M26,95 C23.244,95 21,92.758 21,90 C21,87.242 23.244,85 26,85 C28.756,85 31,87.242 31,90 C31,92.758 28.756,95 26,95 L26,95 Z M70,83 C66.14,83 63,86.14 63,90 C63,93.86 66.14,97 70,97 C73.86,97 77,93.86 77,90 C77,86.14 73.86,83 70,83 L70,83 Z M70,95 C67.242,95 65,92.758 65,90 C65,87.242 67.242,85 70,85 C72.758,85 75,87.242 75,90 C75,92.758 72.758,95 70,95 L70,95 Z" id="Fill-1" sketch:type="MSShapeGroup"></path>
            <path d="M64,25 C72.272,25 79,18.272 79,10 C79,9.448 78.552,9 78,9 C77.448,9 77,9.448 77,10 C77,17.168 71.168,23 64,23 C56.832,23 51,17.168 51,10 C51,9.448 50.552,9 50,9 C49.448,9 49,9.448 49,10 C49,18.272 55.728,25 64,25" id="Fill-2" sketch:type="MSShapeGroup"></path>
        </g>
    </g>
</svg>